<svg xmlns="http://www.w3.org/2000/svg" xmlns:xlink="http://www.w3.org/1999/xlink" width="2000" zoomAndPan="magnify" viewBox="0 0 1500 1499.999933" height="2000" preserveAspectRatio="xMidYMid meet" version="1.0"><defs><clipPath id="5285901fe4"><path d="M 882 441.816406 L 1499 441.816406 L 1499 1058 L 882 1058 Z M 882 441.816406 " clip-rule="nonzero"/></clipPath></defs><rect x="-150" width="1800" fill="#ffffff" y="-149.999993" height="1799.99992" fill-opacity="1"/><rect x="-150" width="1800" fill="#ffffff" y="-149.999993" height="1799.99992" fill-opacity="1"/><path fill="#000000" d="M 1.5625 671.585938 L 970.128906 671.585938 L 970.128906 847.730469 L 1.5625 847.730469 Z M 1.5625 671.585938 " fill-opacity="1" fill-rule="evenodd"/><path fill="#000000" d="M 1.5625 759.660156 L 177.667969 759.660156 L 177.667969 1005.476562 L 1.5625 1005.476562 Z M 1.5625 759.660156 " fill-opacity="1" fill-rule="evenodd"/><path fill="#000000" d="M 265.71875 759.660156 L 441.820312 759.660156 L 441.820312 1005.476562 L 265.71875 1005.476562 Z M 265.71875 759.660156 " fill-opacity="1" fill-rule="evenodd"/><g clip-path="url(#5285901fe4)"><path fill="#000000" d="M 1190.257812 617.210938 C 1117.316406 617.210938 1058.179688 676.359375 1058.179688 749.320312 C 1058.179688 822.277344 1117.316406 881.425781 1190.257812 881.425781 C 1263.199219 881.425781 1322.332031 822.277344 1322.332031 749.320312 C 1322.332031 676.359375 1263.199219 617.210938 1190.257812 617.210938 Z M 882.078125 749.320312 C 882.078125 579.078125 1020.054688 441.070312 1190.257812 441.070312 C 1360.460938 441.070312 1498.4375 579.078125 1498.4375 749.320312 C 1498.4375 919.5625 1360.460938 1057.570312 1190.257812 1057.570312 C 1020.054688 1057.570312 882.078125 919.5625 882.078125 749.320312 Z M 882.078125 749.320312 " fill-opacity="1" fill-rule="evenodd"/></g></svg>